<svg xmlns="http://www.w3.org/2000/svg" xmlns:xlink="http://www.w3.org/1999/xlink" width="500" zoomAndPan="magnify" viewBox="0 0 375 374.999991" height="500" preserveAspectRatio="xMidYMid meet" version="1.0"><defs><g/><clipPath id="fc17d7dc46"><path d="M 70 76.269531 L 304.703125 76.269531 L 304.703125 226.269531 L 70 226.269531 Z M 70 76.269531 " clip-rule="nonzero"/></clipPath></defs><rect x="-37.5" width="450" fill="#ffffff" y="-37.499999" height="449.999989" fill-opacity="1"/><rect x="-37.5" width="450" fill="#151515" y="-37.499999" height="449.999989" fill-opacity="1"/><g clip-path="url(#fc17d7dc46)"><path fill="#57c8f4" d="M 120.589844 157.800781 L 133.597656 165.3125 C 134.714844 165.953125 135.101562 167.394531 134.457031 168.511719 L 126.941406 181.519531 C 126.300781 182.636719 124.859375 183.019531 123.75 182.375 L 110.734375 174.863281 C 109.617188 174.214844 109.230469 172.78125 109.878906 171.664062 L 117.390625 158.648438 C 118.03125 157.542969 119.472656 157.15625 120.589844 157.800781 M 135.941406 131.207031 L 148.953125 138.71875 C 150.070312 139.363281 150.453125 140.800781 149.808594 141.917969 L 142.296875 154.929688 C 141.652344 156.046875 140.214844 156.429688 139.097656 155.785156 L 126.085938 148.273438 C 124.96875 147.628906 124.589844 146.1875 125.230469 145.074219 L 132.742188 132.058594 C 133.386719 130.953125 134.824219 130.566406 135.941406 131.207031 Z M 151.289062 104.617188 L 164.300781 112.128906 C 165.414062 112.769531 165.800781 114.210938 165.15625 115.328125 L 157.644531 128.335938 C 157 129.453125 155.558594 129.835938 154.441406 129.191406 L 141.441406 121.6875 C 140.324219 121.042969 139.941406 119.601562 140.582031 118.484375 L 148.09375 105.476562 C 148.738281 104.359375 150.179688 103.972656 151.289062 104.617188 Z M 254.832031 199.851562 L 267.839844 207.363281 C 268.957031 208.007812 269.339844 209.449219 268.703125 210.566406 L 261.191406 223.574219 C 260.546875 224.691406 259.109375 225.078125 257.992188 224.429688 L 244.980469 216.917969 C 243.863281 216.269531 243.476562 214.835938 244.125 213.71875 L 251.636719 200.703125 C 252.273438 199.589844 253.714844 199.207031 254.832031 199.851562 Z M 270.183594 173.261719 L 283.195312 180.773438 C 284.3125 181.414062 284.691406 182.855469 284.054688 183.972656 L 276.542969 196.988281 C 275.902344 198.105469 274.460938 198.492188 273.347656 197.84375 L 260.335938 190.332031 C 259.222656 189.6875 258.835938 188.25 259.476562 187.132812 L 266.988281 174.121094 C 267.632812 173 269.066406 172.613281 270.183594 173.261719 Z M 275.453125 144.914062 L 281.746094 148.550781 L 274.824219 160.539062 C 274.183594 161.65625 274.566406 163.09375 275.679688 163.738281 L 288.691406 171.25 C 289.808594 171.894531 291.242188 171.511719 291.890625 170.394531 L 298.8125 158.40625 L 304.949219 161.949219 L 267.886719 226.136719 L 228.5625 226.136719 Z M 112.179688 207.089844 C 111.539062 208.203125 110.097656 208.589844 108.980469 207.945312 L 95.972656 200.433594 C 94.855469 199.789062 94.472656 198.347656 95.117188 197.230469 L 102.039062 185.242188 C 102.679688 184.128906 104.121094 183.742188 105.238281 184.386719 L 118.246094 191.898438 C 119.363281 192.539062 119.75 193.980469 119.101562 195.097656 Z M 109.367188 226.132812 L 118.3125 210.632812 L 125.238281 198.648438 L 186.054688 93.304688 L 179.921875 89.765625 L 173 101.746094 C 172.359375 102.863281 170.917969 103.25 169.800781 102.601562 L 156.792969 95.089844 C 155.679688 94.445312 155.289062 93.007812 155.9375 91.890625 L 162.859375 79.910156 L 156.5625 76.269531 L 95.742188 181.613281 L 88.820312 193.597656 L 70.042969 226.132812 L 79.742188 226.132812 C 79.363281 225.4375 79.339844 224.566406 79.761719 223.828125 L 87.273438 210.820312 C 87.917969 209.703125 89.359375 209.320312 90.476562 209.964844 L 103.484375 217.476562 C 104.601562 218.117188 104.988281 219.558594 104.339844 220.671875 L 101.1875 226.132812 Z M 128.359375 226.132812 L 132.558594 218.855469 L 139.480469 206.867188 L 157.265625 176.058594 C 159.710938 171.824219 165.171875 170.363281 169.402344 172.808594 L 214.929688 199.089844 C 219.15625 201.535156 220.625 206.992188 218.175781 211.226562 L 209.574219 226.132812 Z M 261.210938 136.6875 L 236.503906 179.488281 C 234.0625 183.71875 228.601562 185.183594 224.367188 182.742188 L 178.84375 156.457031 C 174.613281 154.015625 173.148438 148.554688 175.589844 144.320312 L 200.296875 101.519531 Z M 261.210938 136.6875 " fill-opacity="1" fill-rule="evenodd"/></g><g fill="#ffffff" fill-opacity="1"><g transform="translate(24.821993, 283.061583)"><g><path d="M 1.953125 -21.53125 C 1.953125 -25.75 2.832031 -29.507812 4.59375 -32.8125 C 6.351562 -36.113281 8.851562 -38.6875 12.09375 -40.53125 C 15.34375 -42.375 19.078125 -43.296875 23.296875 -43.296875 C 28.640625 -43.296875 33.132812 -41.863281 36.78125 -39 C 40.4375 -36.144531 42.789062 -32.265625 43.84375 -27.359375 L 31.015625 -27.359375 C 30.242188 -28.984375 29.175781 -30.222656 27.8125 -31.078125 C 26.457031 -31.929688 24.890625 -32.359375 23.109375 -32.359375 C 20.347656 -32.359375 18.144531 -31.375 16.5 -29.40625 C 14.863281 -27.4375 14.046875 -24.8125 14.046875 -21.53125 C 14.046875 -18.207031 14.863281 -15.5625 16.5 -13.59375 C 18.144531 -11.625 20.347656 -10.640625 23.109375 -10.640625 C 24.890625 -10.640625 26.457031 -11.066406 27.8125 -11.921875 C 29.175781 -12.773438 30.242188 -14.007812 31.015625 -15.625 L 43.84375 -15.625 C 42.789062 -10.71875 40.4375 -6.835938 36.78125 -3.984375 C 33.132812 -1.128906 28.640625 0.296875 23.296875 0.296875 C 19.078125 0.296875 15.34375 -0.625 12.09375 -2.46875 C 8.851562 -4.3125 6.351562 -6.882812 4.59375 -10.1875 C 2.832031 -13.488281 1.953125 -17.269531 1.953125 -21.53125 Z M 1.953125 -21.53125 "/></g></g></g><g fill="#ffffff" fill-opacity="1"><g transform="translate(70.914866, 283.061583)"><g><path d="M 9.421875 -37.28125 C 7.316406 -37.28125 5.625 -37.859375 4.34375 -39.015625 C 3.070312 -40.171875 2.4375 -41.617188 2.4375 -43.359375 C 2.4375 -45.140625 3.070312 -46.617188 4.34375 -47.796875 C 5.625 -48.972656 7.316406 -49.5625 9.421875 -49.5625 C 11.492188 -49.5625 13.164062 -48.972656 14.4375 -47.796875 C 15.71875 -46.617188 16.359375 -45.140625 16.359375 -43.359375 C 16.359375 -41.617188 15.71875 -40.171875 14.4375 -39.015625 C 13.164062 -37.859375 11.492188 -37.28125 9.421875 -37.28125 Z M 15.328125 -34.109375 L 15.328125 0 L 3.40625 0 L 3.40625 -34.109375 Z M 15.328125 -34.109375 "/></g></g></g><g fill="#ffffff" fill-opacity="1"><g transform="translate(89.6439, 283.061583)"><g><path d="M 25.71875 -34.421875 C 29.65625 -34.421875 32.78125 -33.113281 35.09375 -30.5 C 37.40625 -27.882812 38.5625 -24.347656 38.5625 -19.890625 L 38.5625 0 L 26.640625 0 L 26.640625 -18.296875 C 26.640625 -20.242188 26.128906 -21.773438 25.109375 -22.890625 C 24.097656 -24.003906 22.742188 -24.5625 21.046875 -24.5625 C 19.253906 -24.5625 17.851562 -24.003906 16.84375 -22.890625 C 15.832031 -21.773438 15.328125 -20.242188 15.328125 -18.296875 L 15.328125 0 L 3.40625 0 L 3.40625 -34.109375 L 15.328125 -34.109375 L 15.328125 -29.25 C 16.378906 -30.789062 17.796875 -32.035156 19.578125 -32.984375 C 21.359375 -33.941406 23.40625 -34.421875 25.71875 -34.421875 Z M 25.71875 -34.421875 "/></g></g></g><g fill="#ffffff" fill-opacity="1"><g transform="translate(131.35855, 283.061583)"><g><path d="M 36 -17.453125 C 36 -16.515625 35.9375 -15.582031 35.8125 -14.65625 L 13.25 -14.65625 C 13.375 -12.789062 13.890625 -11.398438 14.796875 -10.484375 C 15.710938 -9.578125 16.878906 -9.125 18.296875 -9.125 C 20.285156 -9.125 21.707031 -10.015625 22.5625 -11.796875 L 35.265625 -11.796875 C 34.742188 -9.441406 33.722656 -7.34375 32.203125 -5.5 C 30.679688 -3.65625 28.765625 -2.207031 26.453125 -1.15625 C 24.140625 -0.101562 21.585938 0.421875 18.796875 0.421875 C 15.429688 0.421875 12.441406 -0.285156 9.828125 -1.703125 C 7.210938 -3.117188 5.160156 -5.144531 3.671875 -7.78125 C 2.191406 -10.414062 1.453125 -13.519531 1.453125 -17.09375 C 1.453125 -20.65625 2.179688 -23.742188 3.640625 -26.359375 C 5.109375 -28.972656 7.148438 -30.988281 9.765625 -32.40625 C 12.378906 -33.832031 15.390625 -34.546875 18.796875 -34.546875 C 22.160156 -34.546875 25.140625 -33.851562 27.734375 -32.46875 C 30.328125 -31.09375 32.351562 -29.117188 33.8125 -26.546875 C 35.269531 -23.972656 36 -20.941406 36 -17.453125 Z M 23.84375 -20.4375 C 23.84375 -21.894531 23.351562 -23.035156 22.375 -23.859375 C 21.40625 -24.691406 20.191406 -25.109375 18.734375 -25.109375 C 17.273438 -25.109375 16.078125 -24.710938 15.140625 -23.921875 C 14.210938 -23.140625 13.601562 -21.976562 13.3125 -20.4375 Z M 23.84375 -20.4375 "/></g></g></g><g fill="#ffffff" fill-opacity="1"><g transform="translate(168.816605, 283.061583)"><g><path d="M 43.109375 0 L 31.203125 0 L 15.328125 -23.953125 L 15.328125 0 L 3.40625 0 L 3.40625 -42.875 L 15.328125 -42.875 L 31.203125 -18.609375 L 31.203125 -42.875 L 43.109375 -42.875 Z M 43.109375 0 "/></g></g></g><g fill="#ffffff" fill-opacity="1"><g transform="translate(215.33513, 283.061583)"><g><path d="M 9.421875 -37.28125 C 7.316406 -37.28125 5.625 -37.859375 4.34375 -39.015625 C 3.070312 -40.171875 2.4375 -41.617188 2.4375 -43.359375 C 2.4375 -45.140625 3.070312 -46.617188 4.34375 -47.796875 C 5.625 -48.972656 7.316406 -49.5625 9.421875 -49.5625 C 11.492188 -49.5625 13.164062 -48.972656 14.4375 -47.796875 C 15.71875 -46.617188 16.359375 -45.140625 16.359375 -43.359375 C 16.359375 -41.617188 15.71875 -40.171875 14.4375 -39.015625 C 13.164062 -37.859375 11.492188 -37.28125 9.421875 -37.28125 Z M 15.328125 -34.109375 L 15.328125 0 L 3.40625 0 L 3.40625 -34.109375 Z M 15.328125 -34.109375 "/></g></g></g><g fill="#ffffff" fill-opacity="1"><g transform="translate(234.064152, 283.061583)"><g><path d="M 1.453125 -17.09375 C 1.453125 -20.613281 2.179688 -23.691406 3.640625 -26.328125 C 5.109375 -28.960938 7.148438 -30.988281 9.765625 -32.40625 C 12.378906 -33.832031 15.367188 -34.546875 18.734375 -34.546875 C 23.066406 -34.546875 26.710938 -33.359375 29.671875 -30.984375 C 32.628906 -28.609375 34.535156 -25.296875 35.390625 -21.046875 L 22.75 -21.046875 C 22.019531 -23.273438 20.597656 -24.390625 18.484375 -24.390625 C 16.984375 -24.390625 15.796875 -23.769531 14.921875 -22.53125 C 14.054688 -21.289062 13.625 -19.476562 13.625 -17.09375 C 13.625 -14.695312 14.054688 -12.867188 14.921875 -11.609375 C 15.796875 -10.359375 16.984375 -9.734375 18.484375 -9.734375 C 20.628906 -9.734375 22.050781 -10.847656 22.75 -13.078125 L 35.390625 -13.078125 C 34.535156 -8.859375 32.628906 -5.550781 29.671875 -3.15625 C 26.710938 -0.769531 23.066406 0.421875 18.734375 0.421875 C 15.367188 0.421875 12.378906 -0.285156 9.765625 -1.703125 C 7.148438 -3.117188 5.109375 -5.144531 3.640625 -7.78125 C 2.179688 -10.414062 1.453125 -13.519531 1.453125 -17.09375 Z M 1.453125 -17.09375 "/></g></g></g><g fill="#ffffff" fill-opacity="1"><g transform="translate(270.974916, 283.061583)"><g><path d="M 25.84375 -34.421875 C 29.738281 -34.421875 32.832031 -33.113281 35.125 -30.5 C 37.414062 -27.882812 38.5625 -24.347656 38.5625 -19.890625 L 38.5625 0 L 26.640625 0 L 26.640625 -18.296875 C 26.640625 -20.242188 26.128906 -21.773438 25.109375 -22.890625 C 24.097656 -24.003906 22.742188 -24.5625 21.046875 -24.5625 C 19.253906 -24.5625 17.851562 -24.003906 16.84375 -22.890625 C 15.832031 -21.773438 15.328125 -20.242188 15.328125 -18.296875 L 15.328125 0 L 3.40625 0 L 3.40625 -45 L 15.328125 -45 L 15.328125 -29.25 C 16.378906 -30.789062 17.804688 -32.035156 19.609375 -32.984375 C 21.410156 -33.941406 23.488281 -34.421875 25.84375 -34.421875 Z M 25.84375 -34.421875 "/></g></g></g><g fill="#ffffff" fill-opacity="1"><g transform="translate(312.689566, 283.061583)"><g><path d="M 36 -17.453125 C 36 -16.515625 35.9375 -15.582031 35.8125 -14.65625 L 13.25 -14.65625 C 13.375 -12.789062 13.890625 -11.398438 14.796875 -10.484375 C 15.710938 -9.578125 16.878906 -9.125 18.296875 -9.125 C 20.285156 -9.125 21.707031 -10.015625 22.5625 -11.796875 L 35.265625 -11.796875 C 34.742188 -9.441406 33.722656 -7.34375 32.203125 -5.5 C 30.679688 -3.65625 28.765625 -2.207031 26.453125 -1.15625 C 24.140625 -0.101562 21.585938 0.421875 18.796875 0.421875 C 15.429688 0.421875 12.441406 -0.285156 9.828125 -1.703125 C 7.210938 -3.117188 5.160156 -5.144531 3.671875 -7.78125 C 2.191406 -10.414062 1.453125 -13.519531 1.453125 -17.09375 C 1.453125 -20.65625 2.179688 -23.742188 3.640625 -26.359375 C 5.109375 -28.972656 7.148438 -30.988281 9.765625 -32.40625 C 12.378906 -33.832031 15.390625 -34.546875 18.796875 -34.546875 C 22.160156 -34.546875 25.140625 -33.851562 27.734375 -32.46875 C 30.328125 -31.09375 32.351562 -29.117188 33.8125 -26.546875 C 35.269531 -23.972656 36 -20.941406 36 -17.453125 Z M 23.84375 -20.4375 C 23.84375 -21.894531 23.351562 -23.035156 22.375 -23.859375 C 21.40625 -24.691406 20.191406 -25.109375 18.734375 -25.109375 C 17.273438 -25.109375 16.078125 -24.710938 15.140625 -23.921875 C 14.210938 -23.140625 13.601562 -21.976562 13.3125 -20.4375 Z M 23.84375 -20.4375 "/></g></g></g></svg>